<svg width="82" height="87" viewBox="0 0 82 87" fill="none" xmlns="http://www.w3.org/2000/svg">
<g filter="url(#filter0_d_1251_40936)">
<path fill-rule="evenodd" clip-rule="evenodd" d="M20 5C14.4772 5 10 9.47715 10 15V37C10 42.5228 14.4772 47 20 47H24.9956L29.2329 51.2342C30.209 52.2096 31.791 52.2096 32.7671 51.2342L37.0044 47H42C47.5228 47 52 42.5228 52 37V15C52 9.47715 47.5228 5 42 5H20Z" fill="#D7FAE0"/>
</g>
<rect x="16" y="11" width="30" height="30" rx="8" fill="#23C16B"/>
<g clip-path="url(#clip0_1251_40936)">
<path d="M24.7546 27.4309L23.818 28.3676C22.7563 29.429 22.7262 31.121 23.7493 32.2194C23.7612 32.2322 23.7735 32.2445 23.7862 32.2563C24.3011 32.736 24.9725 33 25.6769 33C26.4177 33 27.1142 32.7116 27.638 32.1877L28.575 31.2507L33.8556 29.0915C33.8578 29.0906 33.8601 29.0897 33.8623 29.0888L36.6767 27.938C37.582 27.568 37.8769 26.9691 37.9649 26.532C38.1053 25.835 37.8031 25.0329 37.1566 24.3865C36.6218 23.8517 35.8679 23.5821 35.0777 23.5942C35.1367 22.9013 34.9131 22.1884 34.4034 21.6366C34.3902 21.6224 34.3765 21.6087 34.3623 21.5955C33.8104 21.0856 33.0974 20.8624 32.4046 20.9212C32.4171 20.1303 32.1469 19.3769 31.6122 18.8421C31.0702 18.2999 30.4187 18 29.8115 18C29.6946 18 29.5792 18.0111 29.4667 18.0338C29.0296 18.1218 28.4307 18.4167 28.0605 19.3226L26.9122 22.1392C26.9113 22.1412 26.9106 22.1431 26.9098 22.145L24.7546 27.4309ZM28.4725 29.7008L31.5039 27.3717L32.2772 28.145L28.4725 29.7008ZM27.311 28.7352L27.2634 28.6876L29.6777 25.5454L30.4532 26.321L27.311 28.7352ZM26.3173 27.5007L27.8569 23.7245L28.627 24.4947L26.3173 27.5007ZM26.5961 31.1458C26.3506 31.3914 26.0241 31.5266 25.6768 31.5266C25.3552 31.5266 25.0483 31.4093 24.8097 31.1958C24.3482 30.6806 24.3682 29.901 24.8598 29.4094L25.3807 28.8886L27.117 30.625L26.5961 31.1458ZM36.1147 25.4284C36.4404 25.754 36.5534 26.078 36.5204 26.2412C36.4882 26.4013 36.2552 26.5184 36.1191 26.5741L33.7562 27.5403L32.6823 26.4664L34.2046 25.2968C34.8905 24.9486 35.687 25.0007 36.1147 25.4284ZM33.3406 22.6582C33.7119 23.0815 33.6996 23.7125 33.3143 24.1227L31.6315 25.4157L30.583 24.3671L31.8759 22.6843C32.2862 22.2991 32.9173 22.287 33.3406 22.6582ZM29.4246 19.8794C29.4802 19.7434 29.5974 19.5104 29.7575 19.4782C29.9204 19.4454 30.2446 19.5582 30.5702 19.8839C30.998 20.3117 31.0501 21.1082 30.7019 21.7941L29.5323 23.3164L28.4604 22.2445L29.4246 19.8794Z" fill="#D7FAE0"/>
</g>
<defs>
<filter id="filter0_d_1251_40936" x="0" y="0" width="82" height="86.9658" filterUnits="userSpaceOnUse" color-interpolation-filters="sRGB">
<feFlood flood-opacity="0" result="BackgroundImageFix"/>
<feColorMatrix in="SourceAlpha" type="matrix" values="0 0 0 0 0 0 0 0 0 0 0 0 0 0 0 0 0 0 127 0" result="hardAlpha"/>
<feOffset dx="10" dy="15"/>
<feGaussianBlur stdDeviation="10"/>
<feColorMatrix type="matrix" values="0 0 0 0 0.827451 0 0 0 0 0.819608 0 0 0 0 0.847059 0 0 0 0.45 0"/>
<feBlend mode="normal" in2="BackgroundImageFix" result="effect1_dropShadow_1251_40936"/>
<feBlend mode="normal" in="SourceGraphic" in2="effect1_dropShadow_1251_40936" result="shape"/>
</filter>
<clipPath id="clip0_1251_40936">
<rect width="15" height="15" fill="white" transform="translate(23 18)"/>
</clipPath>
</defs>
</svg>
