<svg width="240" height="240" viewBox="0 0 240 240" fill="none" xmlns="http://www.w3.org/2000/svg">
<path d="M39.6094 0.515533C22.9688 2.85928 9.14063 13.5937 3.37501 28.5937C-4.45312 49.0312 1.87501 74.3437 19.4531 92.7655C30.2813 104.109 42.5625 111.187 56.7188 114.234C62.3438 115.453 74.6719 115.406 79.9219 114.187C85.2188 112.969 90.8906 110.578 94.9219 107.906L98.3438 105.609L105.797 113.062L113.203 120.469L93.0469 140.625L72.8438 160.828L70.8281 160.078C68.0156 159.094 64.7344 159.187 61.5469 160.359C58.9688 161.297 57.2344 162.937 30.0938 190.031C14.2969 205.781 1.03126 219.281 0.609383 220.031C-0.749992 222.656 -0.0937421 223.734 8.10938 231.891C15.7031 239.484 17.0625 240.422 19.3125 239.766C20.6719 239.344 29.3438 230.859 30.3281 229.031C31.875 226.031 29.7188 222.516 26.2031 222.516C24.4688 222.516 24 222.797 21.1875 225.656L18.0469 228.75L14.6719 225.375L11.25 221.953L32.2031 201L53.2031 180L56.5781 183.375L60 186.75L54.1406 192.656C48.75 198.141 48.2813 198.75 48.2813 200.344C48.2813 202.922 50.2969 204.844 53.0156 204.844C54.9844 204.844 55.125 204.75 66.375 193.547C79.5469 180.422 80.3438 179.297 80.3906 173.906C80.3906 171.984 80.25 169.734 80.0156 168.984C79.6875 167.625 80.25 166.969 99.7969 147.469L119.953 127.312L124.313 131.531C126.75 133.875 129.281 135.937 129.984 136.125C133.078 136.875 136.406 133.547 135.656 130.453C135.469 129.75 133.406 127.219 131.063 124.781L126.844 120.422L134.25 113.016L141.656 105.609L145.078 107.906C149.109 110.578 154.781 112.969 160.078 114.187C165.328 115.406 177.656 115.453 183.281 114.234C208.594 108.75 230.672 88.078 237.656 63.2343C248.062 26.1562 222.047 -4.68759 184.922 0.703033C165.094 3.56241 146.297 16.2187 135 34.2187C127.641 45.9374 124.359 57.7968 124.828 70.7812C125.203 80.8124 127.406 87.9374 132.375 95.3437C133.547 97.1249 134.531 98.6718 134.531 98.8593C134.531 98.9999 131.25 102.422 127.266 106.406L120 113.672L112.734 106.406C108.75 102.422 105.469 98.9999 105.469 98.8593C105.469 98.6718 106.453 97.1249 107.625 95.3437C112.594 87.9374 114.797 80.8124 115.172 70.7812C115.547 60.4687 113.719 51.6562 109.219 41.953C100.594 23.2968 82.5938 7.78116 63.2344 2.34366C55.875 0.281158 46.4531 -0.468842 39.6094 0.515533ZM57.1875 10.6405C61.4531 11.5312 67.6875 13.6874 71.4375 15.5624L74.2031 16.9687L69.7031 21.4687L65.1563 26.0155L56.8125 17.6718L48.5156 9.32803L51.0938 9.60928C52.5 9.74991 55.2656 10.2187 57.1875 10.6405ZM183.141 17.6718L174.844 26.0155L170.391 21.5155L165.891 17.0624L170.484 14.8593C176.906 11.8124 184.266 9.84366 190.547 9.42178C191.156 9.37491 188.672 12.1874 183.141 17.6718ZM39.0469 13.4999L41.7188 16.1718L36.8906 20.9999L32.1094 25.7812L27.7031 21.3749L23.3438 16.9687L25.5938 15.4218C27.7031 13.9687 34.7344 10.828 35.8594 10.7812C36.1406 10.7812 37.5469 11.9999 39.0469 13.4999ZM208.359 12.328C210.422 13.1718 213.141 14.5312 214.406 15.4218L216.656 16.9687L212.297 21.3749L207.891 25.7812L203.109 20.9999L198.281 16.1718L200.953 13.4999C202.453 11.9999 203.859 10.7812 204.141 10.7812C204.375 10.7812 206.297 11.4843 208.359 12.328ZM87.4688 27.4218L92.5313 32.3905L87.2813 37.6405L82.0313 42.8905L76.875 37.7343L71.7188 32.578L76.7344 27.5624C79.5 24.7499 81.9375 22.4999 82.125 22.4999C82.2656 22.4999 84.7031 24.703 87.4688 27.4218ZM163.266 27.5624L168.281 32.578L163.125 37.7343L157.969 42.8905L152.719 37.6405L147.469 32.3905L152.531 27.4218C155.297 24.703 157.734 22.4999 157.875 22.4999C158.063 22.4999 160.5 24.7499 163.266 27.5624ZM53.4375 27.8905L58.3594 32.8124L53.5313 37.5937L48.75 42.4218L43.7344 37.4062L38.6719 32.3437L43.3594 27.6562C45.9375 25.078 48.1406 22.9687 48.2813 22.9687C48.4219 22.9687 50.7188 25.1718 53.4375 27.8905ZM196.641 27.6562L201.328 32.3437L196.266 37.4062L191.25 42.4218L186.469 37.5937L181.641 32.8124L186.563 27.8905C189.281 25.1718 191.578 22.9687 191.719 22.9687C191.859 22.9687 194.062 25.078 196.641 27.6562ZM21.3281 28.1249L25.5469 32.3437L17.4375 40.453L9.37501 48.5155V46.1249C9.37501 42.4218 10.6406 35.9062 12.1406 32.0624C13.4531 28.6874 16.1719 23.9062 16.8281 23.9062C16.9688 23.9062 19.0313 25.828 21.3281 28.1249ZM225 26.2499C228.141 31.1249 230.625 39.9374 230.625 46.1249V48.5155L222.562 40.453L214.453 32.3437L218.672 28.1249C220.969 25.828 223.031 23.9062 223.172 23.9062C223.359 23.9062 224.156 24.9843 225 26.2499ZM41.7188 48.9843C41.7188 49.2655 39.6094 51.5624 37.0313 54.1405L32.3438 58.828L27.3281 53.7655L22.2656 48.7499L27.1875 43.828L32.1094 38.9062L36.8906 43.6874C39.5625 46.3593 41.7188 48.703 41.7188 48.9843ZM212.719 53.7655L207.656 58.828L202.969 54.1405C200.391 51.5624 198.281 49.2655 198.281 48.9843C198.281 48.7499 200.438 46.3593 203.062 43.7343L207.891 38.9062L212.812 43.828L217.734 48.7499L212.719 53.7655ZM70.4063 54.4687L65.625 59.2968L60.4688 54.1405L55.3125 48.9843L60.0938 44.203L64.9219 39.3749L70.0781 44.5312L75.2344 49.6874L70.4063 54.4687ZM179.531 54.1405L174.375 59.2968L169.594 54.4687L164.766 49.6874L169.922 44.5312L175.078 39.3749L179.859 44.1562L184.688 48.9843L179.531 54.1405ZM99.7969 43.9218C100.781 45.9374 102.188 49.1249 102.844 51.0468L104.109 54.5624L101.531 57.1405L98.9063 59.7655L93.75 54.6093L88.5938 49.453L93.1406 44.9062C95.6719 42.3749 97.7813 40.3124 97.8281 40.3124C97.9219 40.3124 98.7656 41.953 99.7969 43.9218ZM146.25 54.6093L141.094 59.7655L138.516 57.1405L135.891 54.5624L137.156 51.0468C137.813 49.1249 139.219 45.8905 140.25 43.8749L142.125 40.1718L146.766 44.8124L151.406 49.453L146.25 54.6093ZM20.7656 60.3749L25.7813 65.3905L21.3281 69.8437L16.9219 74.2499L15.0469 70.3124C14.0156 68.1093 12.7031 64.8749 12.1406 63.1405L11.1094 59.953L13.4063 57.6093C14.625 56.3437 15.6563 55.3124 15.7031 55.3124C15.7031 55.3124 18 57.5624 20.7656 60.3749ZM227.859 63.1405C227.297 64.8749 225.984 68.1093 224.953 70.3124L223.078 74.2499L218.672 69.8437L214.219 65.3905L219.234 60.3749L224.297 55.3124L226.594 57.6093L228.891 59.953L227.859 63.1405ZM53.7656 60.5624C56.4375 63.2343 58.5938 65.578 58.5938 65.8593C58.5938 66.1405 56.4844 68.4374 53.9063 71.0155L49.2188 75.703L44.0625 70.5468L38.9063 65.3905L43.6875 60.6093C46.3594 57.9374 48.6094 55.7812 48.75 55.7812C48.8438 55.7812 51.1406 57.9374 53.7656 60.5624ZM196.312 60.6093L201.094 65.3905L195.938 70.5468L190.781 75.703L186.094 71.0155C183.516 68.4374 181.406 66.1405 181.406 65.8593C181.406 65.3905 190.781 55.7812 191.25 55.7812C191.391 55.7812 193.641 57.9374 196.312 60.6093ZM87.2813 71.3437L82.5 76.1718L77.3438 71.0155L72.1875 65.8593L76.9688 61.078L81.7969 56.2499L86.9531 61.4062L92.1094 66.5624L87.2813 71.3437ZM162.656 71.0155L157.5 76.1718L152.719 71.3437L147.891 66.5624L153.047 61.4062L158.203 56.2499L162.984 61.0312L167.813 65.8593L162.656 71.0155ZM105.469 75.4687C105.141 77.3905 104.297 80.6249 103.594 82.6405C102.281 86.1093 99.1875 91.8749 98.5313 91.8749C98.3438 91.8749 96.1406 89.8124 93.6563 87.328L89.0625 82.7343L97.3594 74.3905L105.703 66.0937L105.844 68.9999C105.938 70.6405 105.75 73.5468 105.469 75.4687ZM146.391 87.2812C143.859 89.8124 141.656 91.8749 141.516 91.8749C140.859 91.8749 138.141 87.0937 136.781 83.578C135.047 79.078 134.063 74.0624 134.063 69.4687V65.8593L142.5 74.2968L150.938 82.7343L146.391 87.2812ZM37.3594 76.9687C40.0313 79.6405 42.1875 81.9843 42.1875 82.2655C42.1875 82.5468 40.0313 84.9374 37.3594 87.5624L32.5313 92.3905L29.7188 89.8124C28.1719 88.453 25.875 86.1093 24.6563 84.6093L22.3594 81.9374L27.2344 77.0624C29.9063 74.3905 32.2031 72.1874 32.3438 72.1874C32.4375 72.1874 34.7344 74.3437 37.3594 76.9687ZM212.766 77.0624L217.641 81.9374L215.344 84.6093C214.125 86.1093 211.828 88.453 210.281 89.8124L207.469 92.3905L202.641 87.5624C199.969 84.9374 197.812 82.5468 197.812 82.2655C197.812 81.7968 207.188 72.1874 207.656 72.1874C207.797 72.1874 210.094 74.3905 212.766 77.0624ZM70.6406 77.4374C73.3125 80.1093 75.4688 82.453 75.4688 82.7343C75.4688 83.0155 73.3594 85.3124 70.7813 87.8905L66.0938 92.578L60.9375 87.4218L55.7813 82.2655L60.5625 77.4843C63.2344 74.8124 65.4844 72.6562 65.625 72.6562C65.7188 72.6562 68.0156 74.8124 70.6406 77.4374ZM179.438 77.4843L184.219 82.2655L179.063 87.4218L173.906 92.578L169.219 87.8905C166.641 85.3124 164.531 83.0155 164.531 82.7343C164.531 82.2655 173.906 72.6562 174.375 72.6562C174.516 72.6562 176.766 74.8124 179.438 77.4843ZM57.8906 97.5468L66.3281 106.031L63.2813 105.703C57.2344 105.094 49.9688 102.797 43.5 99.5624L40.1719 97.8749L44.5781 93.4687C46.9688 91.0312 49.0781 89.0624 49.2188 89.0624C49.3594 89.0624 53.25 92.8593 57.8906 97.5468ZM195.422 93.4687L199.828 97.8749L196.5 99.5624C190.031 102.797 182.766 105.094 176.719 105.703L173.672 106.031L182.109 97.5468C186.75 92.8593 190.641 89.0624 190.781 89.0624C190.922 89.0624 193.031 91.0312 195.422 93.4687ZM87.3281 94.1249L91.9219 98.7655L90.1406 99.9374C87.4219 101.719 84.9375 102.937 81.5625 104.016L78.5625 105L75.6094 102.094L72.6563 99.1405L77.4375 94.3593C80.1094 91.6874 82.3594 89.5312 82.5 89.5312C82.6406 89.5312 84.7969 91.5937 87.3281 94.1249ZM162.563 94.3593L167.344 99.1405L164.391 102.094L161.438 105L158.438 104.016C155.063 102.937 152.578 101.719 149.859 99.9374L148.078 98.7655L152.672 94.1249C155.203 91.5937 157.359 89.5312 157.5 89.5312C157.641 89.5312 159.891 91.6874 162.563 94.3593ZM68.8594 169.406C71.4844 170.766 71.9063 173.766 69.8906 176.531C67.0781 180.422 67.1719 180.422 63.375 176.578L60 173.156L61.7344 171.469C64.7813 168.609 66.375 168.141 68.8594 169.406Z" fill="white"/>
<path d="M139.031 139.5C138.094 140.484 137.812 141.234 137.812 142.734C137.812 144.234 138.094 144.984 139.031 145.969C140.016 146.906 140.766 147.188 142.266 147.188C145.031 147.188 146.719 145.5 146.719 142.734C146.719 139.969 145.031 138.281 142.266 138.281C140.766 138.281 140.016 138.562 139.031 139.5Z" fill="white"/>
<path d="M151.313 149.812C150.609 150.187 149.672 151.125 149.25 151.922C147.938 154.453 148.688 155.812 154.781 162L160.359 167.719L159.797 169.875C159.094 172.781 159.516 177 160.781 179.578C161.484 181.031 170.438 190.266 190.219 210.141C205.875 225.844 219.281 238.969 220.031 239.391C222.656 240.75 223.734 240.094 231.891 231.891C240.094 223.734 240.75 222.656 239.391 220.031C238.969 219.281 225.703 205.781 209.906 190.031C182.766 162.937 181.031 161.297 178.453 160.359C175.266 159.187 171.984 159.094 169.172 160.078L167.156 160.781L161.719 155.437C155.297 149.062 153.984 148.359 151.313 149.812ZM175.688 169.406C176.391 169.781 177.656 170.766 178.453 171.656L180 173.25L176.578 176.625L173.156 180L171.75 178.5C168.703 175.219 168.141 173.437 169.406 171.141C170.625 168.937 173.344 168.187 175.688 169.406ZM225.375 225.328L221.953 228.75L201 207.797L180 186.797L183.375 183.422L186.797 180L207.75 200.953L228.75 221.953L225.375 225.328Z" fill="white"/>
<path d="M114.891 156.094C109.969 157.125 105.797 160.453 103.641 165C102.516 167.344 102.422 168.187 102.281 174.562L102.141 181.5L91.8282 198.234C85.1251 209.062 81.2814 215.812 80.7657 217.453C78.2345 226.219 84.9845 234.844 94.3595 234.844C98.8126 234.844 102.75 232.641 105.797 228.516L106.828 227.109L106.875 228.562C106.875 230.531 108.984 234.516 110.906 236.203C114.75 239.578 119.25 240.703 123.797 239.391C128.203 238.078 131.953 234.234 133.078 229.828L133.594 227.906L136.313 230.578C139.688 233.953 142.547 235.078 147.141 234.75C154.734 234.187 160.266 227.906 159.703 220.312C159.469 216.469 159.422 216.328 147.891 197.578L138.375 182.109L138.141 175.547C138 171.891 137.672 168.094 137.344 167.062C136.031 162.656 131.297 157.781 127.125 156.562C124.781 155.859 117.422 155.578 114.891 156.094ZM124.922 165.937C127.781 167.297 128.438 168.797 128.438 173.859V178.125H119.953H111.469L111.656 173.484C111.797 169.266 111.891 168.703 112.969 167.578C114.656 165.703 116.531 165.047 119.953 165C122.063 165 123.563 165.281 124.922 165.937ZM140.391 203.297C151.219 220.922 151.547 221.672 149.156 224.062C147.516 225.656 145.266 225.937 143.578 224.766C143.016 224.344 140.578 220.641 138.188 216.422L133.875 208.828L133.594 204.234C133.359 200.062 133.219 199.594 132.047 198.422C130.266 196.641 127.547 196.641 125.766 198.422L124.453 199.687L124.219 214.031L123.984 228.375L122.672 229.5C120.328 231.516 117.094 230.484 116.297 227.437C115.969 226.453 115.781 220.219 115.781 212.484V199.312L114.328 198.094C112.359 196.453 110.156 196.453 108.234 198.187C106.828 199.453 106.781 199.687 106.547 203.906L106.313 208.359L102.094 216C99.7501 220.172 97.3126 224.062 96.6564 224.531C94.172 226.5 90.3282 225.094 89.7189 222C89.5782 221.062 89.672 219.937 90.0001 219.328C90.3282 218.719 94.8282 211.312 100.031 202.828L109.453 187.5H120.047H130.688L140.391 203.297Z" fill="white"/>
<path d="M37.9218 209.016C34.078 212.859 39.2343 218.812 43.828 215.812C45.5155 214.734 46.1249 212.344 45.2812 210.328C44.0155 207.281 40.3124 206.625 37.9218 209.016Z" fill="white"/>
</svg>
