<svg width="100" height="100" viewBox="0 0 100 100" fill="none" xmlns="http://www.w3.org/2000/svg">
<rect width="100" height="100" rx="20" fill="#23C16B"/>
<path d="M89.7437 44.7736C89.6155 44.5174 89.2311 44.2611 88.9748 44.2611L75.1342 41.8269L77.3128 23.3776C77.3128 23.2494 77.3128 23.1213 77.3128 22.9932V22.8651C77.3128 22.737 77.1846 22.6088 77.0565 22.4807C77.0565 22.4807 77.0564 22.4807 76.9283 22.4807C76.8001 22.3526 76.672 22.3526 76.5439 22.2245H76.4157C76.2875 22.2245 76.1594 22.2245 76.0312 22.2245C76.0312 22.2245 76.0312 22.2245 75.9031 22.2245L57.9616 24.7869L55.5266 10.9499C55.5266 10.5655 55.2703 10.3093 55.014 10.1812C54.7577 10.0531 54.3732 9.92495 53.9888 10.0531L45.7869 12.3592C45.4025 12.4874 45.1462 12.7436 45.018 12.9998L22.0785 62.1979L19.6436 64.6322L12.9796 71.2945C9.00681 75.2662 9.00681 81.6722 12.9796 85.5158L14.5174 87.0533C16.4397 88.9751 19.0028 90 21.694 90C24.2571 90 26.8202 88.9751 28.8706 87.0533L35.5346 80.391C35.5346 80.391 35.5346 80.2629 35.6628 80.2629L38.0977 77.8286C38.2259 77.7005 38.2259 77.7005 38.2259 77.5724L87.0525 54.8951C87.4369 54.767 87.5651 54.5107 87.6932 54.1264L90 45.9267C89.8718 45.4142 89.8718 45.158 89.7437 44.7736ZM56.2956 60.9167C56.1674 61.3011 56.2955 61.5574 56.5519 61.8136C56.8082 62.0698 57.0645 62.3261 57.3208 62.3261L62.9595 63.0948L49.1189 69.5008L44.1209 64.5041L57.3208 55.4076L56.2956 60.9167ZM37.2006 75.1381L33.7405 71.6788L42.1986 65.9134L46.9403 70.6539L37.2006 75.1381ZM28.9988 52.8452L33.6123 57.4575L27.8454 65.9134L24.3853 62.4542L28.9988 52.8452ZM35.6628 38.3676L36.4317 41.4425C36.5599 41.955 37.0725 42.3393 37.5851 42.3393H43.9928L35.022 55.4076L30.024 50.4109L35.6628 38.3676ZM45.6588 51.9483C45.6588 52.5889 46.1714 53.1014 46.8122 53.1014L55.6548 53.6139L42.4549 62.7104L36.9443 57.2013L45.4025 44.9017L45.6588 51.9483ZM29.6396 67.7071L35.4065 59.2512L40.2763 64.1197L31.8182 69.8852L29.6396 67.7071ZM22.2066 65.2728L22.9756 64.5041L35.2783 76.8036L34.5094 77.5724L22.2066 65.2728ZM58.8586 51.4359L48.0937 50.7953L47.5811 41.6987L57.5771 27.2212L72.4429 25.0431L59.2431 38.2395C58.7305 38.752 58.7305 39.5207 59.2431 39.9051C59.4994 40.1613 59.7557 40.2894 60.1402 40.2894C60.3965 40.2894 60.7809 40.1613 61.0372 39.9051L74.3652 26.5806L72.5711 42.0831L58.8586 51.4359ZM46.9403 14.281L51.8102 12.8717L44.8899 25.5556C44.5054 26.1962 44.7617 26.8368 45.4025 27.2212C45.5306 27.3493 45.7869 27.3493 46.0433 27.3493C46.4277 27.3493 46.9403 27.093 47.0685 26.7087L53.6043 14.6654L55.5266 25.6837L45.7869 39.9051H39.8919L43.2239 34.3959C43.6083 33.7553 43.352 33.1147 42.8394 32.7303C42.1986 32.346 41.5579 32.6022 41.1734 33.1147L38.2259 38.1114L37.457 34.7803L46.9403 14.281ZM27.0765 85.1315C24.129 88.0782 19.2591 88.0782 16.3116 85.1315L14.7737 83.594C11.8262 80.6472 11.8262 75.7787 14.7737 72.8319L20.5406 67.0665L32.8434 79.3661L27.0765 85.1315ZM67.1886 61.173C67.0605 61.173 67.0605 61.173 67.1886 61.173L61.8062 60.4043L67.5731 57.5856C68.2139 57.3294 68.4702 56.5607 68.0857 55.9201C67.8294 55.2795 67.0605 55.0232 66.4197 55.4076L59.2431 58.9949L60.3965 53.4858L73.9808 44.133L84.8738 46.0548L71.0332 53.1014C70.3925 53.3577 70.1361 54.1264 70.5206 54.767C70.7769 55.1513 71.1614 55.4076 71.674 55.4076C71.8022 55.4076 72.0585 55.4076 72.1866 55.2795L86.7962 47.8485L85.3865 52.8452L67.1886 61.173Z" fill="white"/>
<path d="M56.1674 41.3144L54.2451 43.2362C53.7325 43.7487 53.7325 44.5174 54.2451 44.9018C54.5014 45.158 54.7577 45.2861 55.1421 45.2861C55.3984 45.2861 55.7829 45.158 56.0392 44.9018L57.9615 42.9799C58.4742 42.4675 58.4742 41.6988 57.9615 41.3144C57.3208 40.93 56.5518 40.93 56.1674 41.3144Z" fill="white"/>
</svg>
