<svg width="80" height="80" viewBox="0 0 80 80" fill="none" xmlns="http://www.w3.org/2000/svg">
<path d="M79.7437 34.7736C79.6155 34.5174 79.2311 34.2611 78.9748 34.2611L65.1342 31.8269L67.3128 13.3776C67.3128 13.2494 67.3128 13.1213 67.3128 12.9932V12.8651C67.3128 12.737 67.1846 12.6088 67.0565 12.4807C67.0565 12.4807 67.0564 12.4807 66.9283 12.4807C66.8001 12.3526 66.672 12.3526 66.5439 12.2245H66.4157C66.2875 12.2245 66.1594 12.2245 66.0312 12.2245C66.0312 12.2245 66.0312 12.2245 65.9031 12.2245L47.9616 14.7869L45.5266 0.949906C45.5266 0.565546 45.2703 0.309308 45.014 0.181188C44.7577 0.0530675 44.3732 -0.0750506 43.9888 0.0530695L35.7869 2.35924C35.4025 2.48736 35.1462 2.7436 35.018 2.99984L12.0785 52.1979L9.64357 54.6322L2.97957 61.2945C-0.993192 65.2662 -0.993192 71.6722 2.97957 75.5158L4.51742 77.0533C6.43972 78.9751 9.00281 80 11.694 80C14.2571 80 16.8202 78.9751 18.8706 77.0533L25.5346 70.391C25.5346 70.391 25.5346 70.2629 25.6628 70.2629L28.0977 67.8286C28.2259 67.7005 28.2259 67.7005 28.2259 67.5724L77.0525 44.8951C77.4369 44.767 77.5651 44.5107 77.6932 44.1264L80 35.9267C79.8718 35.4142 79.8718 35.158 79.7437 34.7736ZM46.2956 50.9167C46.1674 51.3011 46.2955 51.5574 46.5519 51.8136C46.8082 52.0698 47.0645 52.3261 47.3208 52.3261L52.9595 53.0948L39.1189 59.5008L34.1209 54.5041L47.3208 45.4076L46.2956 50.9167ZM27.2006 65.1381L23.7405 61.6788L32.1986 55.9134L36.9403 60.6539L27.2006 65.1381ZM18.9988 42.8452L23.6123 47.4575L17.8454 55.9134L14.3853 52.4542L18.9988 42.8452ZM25.6628 28.3676L26.4317 31.4425C26.5599 31.955 27.0725 32.3393 27.5851 32.3393H33.9928L25.022 45.4076L20.024 40.4109L25.6628 28.3676ZM35.6588 41.9483C35.6588 42.5889 36.1714 43.1014 36.8122 43.1014L45.6548 43.6139L32.4549 52.7104L26.9443 47.2013L35.4025 34.9017L35.6588 41.9483ZM19.6396 57.7071L25.4065 49.2512L30.2763 54.1197L21.8182 59.8852L19.6396 57.7071ZM12.2066 55.2728L12.9756 54.5041L25.2783 66.8036L24.5094 67.5724L12.2066 55.2728ZM48.8586 41.4359L38.0937 40.7953L37.5811 31.6987L47.5771 17.2212L62.4429 15.0431L49.2431 28.2395C48.7305 28.752 48.7305 29.5207 49.2431 29.9051C49.4994 30.1613 49.7557 30.2894 50.1402 30.2894C50.3965 30.2894 50.7809 30.1613 51.0372 29.9051L64.3652 16.5806L62.5711 32.0831L48.8586 41.4359ZM36.9403 4.28104L41.8102 2.87171L34.8899 15.5556C34.5054 16.1962 34.7617 16.8368 35.4025 17.2212C35.5306 17.3493 35.7869 17.3493 36.0433 17.3493C36.4277 17.3493 36.9403 17.093 37.0685 16.7087L43.6043 4.66539L45.5266 15.6837L35.7869 29.9051H29.8919L33.2239 24.3959C33.6083 23.7553 33.352 23.1147 32.8394 22.7303C32.1986 22.346 31.5579 22.6022 31.1734 23.1147L28.2259 28.1114L27.457 24.7803L36.9403 4.28104ZM17.0765 75.1315C14.129 78.0782 9.25912 78.0782 6.31158 75.1315L4.77372 73.594C1.82618 70.6472 1.82618 65.7787 4.77372 62.8319L10.5406 57.0665L22.8434 69.3661L17.0765 75.1315ZM57.1886 51.173C57.0605 51.173 57.0605 51.173 57.1886 51.173L51.8062 50.4043L57.5731 47.5856C58.2139 47.3294 58.4702 46.5607 58.0857 45.9201C57.8294 45.2795 57.0605 45.0232 56.4197 45.4076L49.2431 48.9949L50.3965 43.4858L63.9808 34.133L74.8738 36.0548L61.0332 43.1014C60.3925 43.3577 60.1361 44.1264 60.5206 44.767C60.7769 45.1513 61.1614 45.4076 61.674 45.4076C61.8022 45.4076 62.0585 45.4076 62.1866 45.2795L76.7962 37.8485L75.3865 42.8452L57.1886 51.173Z" fill="white"/>
</svg>
