<svg width="24" height="24" viewBox="0 0 24 24" fill="none" xmlns="http://www.w3.org/2000/svg">
<path d="M20.7671 11.4118C20.5539 9.50317 19.698 7.7238 18.3401 6.36583C16.9821 5.00786 15.2027 4.15201 13.2941 3.93882V2.94118C13.2941 2.42353 12.8706 2 12.3529 2C11.8353 2 11.4118 2.42353 11.4118 2.94118V3.93882C9.50317 4.15201 7.7238 5.00786 6.36583 6.36583C5.00786 7.7238 4.15201 9.50317 3.93882 11.4118H2.94118C2.42353 11.4118 2 11.8353 2 12.3529C2 12.8706 2.42353 13.2941 2.94118 13.2941H3.93882C4.15201 15.2027 5.00786 16.9821 6.36583 18.3401C7.7238 19.698 9.50317 20.5539 11.4118 20.7671V21.7647C11.4118 22.2824 11.8353 22.7059 12.3529 22.7059C12.8706 22.7059 13.2941 22.2824 13.2941 21.7647V20.7671C15.2027 20.5539 16.9821 19.698 18.3401 18.3401C19.698 16.9821 20.5539 15.2027 20.7671 13.2941H21.7647C22.2824 13.2941 22.7059 12.8706 22.7059 12.3529C22.7059 11.8353 22.2824 11.4118 21.7647 11.4118H20.7671ZM12.3529 18.9412C8.71059 18.9412 5.76471 15.9953 5.76471 12.3529C5.76471 8.71059 8.71059 5.76471 12.3529 5.76471C15.9953 5.76471 18.9412 8.71059 18.9412 12.3529C18.9412 15.9953 15.9953 18.9412 12.3529 18.9412Z" fill="#23C16B"/>
<circle cx="12.3528" cy="12.3531" r="3.76471" fill="#D7FAE0"/>
</svg>
