<svg width="49" height="49" viewBox="0 0 49 49" fill="none" xmlns="http://www.w3.org/2000/svg">
<rect x="0.109253" y="0.0385742" width="48" height="48" rx="16" fill="white"/>
<path d="M41.9939 21.6867C41.9362 21.5714 41.7632 21.4561 41.6479 21.4561L35.4196 20.3607L36.4 12.0585C36.4 12.0008 36.4 11.9432 36.4 11.8855V11.8279C36.4 11.7702 36.3423 11.7126 36.2847 11.6549C36.2847 11.6549 36.2847 11.6549 36.227 11.6549C36.1693 11.5972 36.1117 11.5972 36.054 11.5396H35.9963C35.9386 11.5396 35.881 11.5396 35.8233 11.5396C35.8233 11.5396 35.8233 11.5396 35.7656 11.5396L27.692 12.6927L26.5962 6.46603C26.5962 6.29307 26.4809 6.17776 26.3656 6.12011C26.2502 6.06245 26.0772 6.0048 25.9042 6.06246L22.2134 7.10023C22.0404 7.15788 21.925 7.27319 21.8674 7.3885L11.5446 29.5276L10.4489 30.6231L7.45006 33.6211C5.66232 35.4084 5.66232 38.2911 7.45006 40.0207L8.14209 40.7125C9.00713 41.5774 10.1605 42.0386 11.3716 42.0386C12.525 42.0386 13.6783 41.5774 14.601 40.7125L17.5998 37.7145C17.5998 37.7145 17.5998 37.6569 17.6575 37.6569L18.7532 36.5614C18.8109 36.5038 18.8109 36.5038 18.8109 36.4461L40.7829 26.2414C40.9559 26.1837 41.0135 26.0684 41.0712 25.8954L42.1093 22.2056C42.0516 21.975 42.0516 21.8597 41.9939 21.6867ZM26.9423 28.9511C26.8846 29.1241 26.9423 29.2394 27.0576 29.3547C27.1729 29.47 27.2883 29.5853 27.4036 29.5853L29.941 29.9312L23.7128 32.8139L21.4637 30.5654L27.4036 26.472L26.9423 28.9511ZM18.3495 35.3507L16.7925 33.7941L20.5986 31.1996L22.7324 33.3328L18.3495 35.3507ZM14.6587 25.3189L16.7348 27.3945L14.1397 31.1996L12.5826 29.643L14.6587 25.3189ZM17.6575 18.804L18.0035 20.1877C18.0612 20.4183 18.2919 20.5913 18.5225 20.5913H21.406L17.3692 26.472L15.1201 24.2235L17.6575 18.804ZM22.1557 24.9153C22.1557 25.2036 22.3864 25.4342 22.6747 25.4342L26.6539 25.6648L20.714 29.7583L18.2342 27.2791L22.0404 21.7444L22.1557 24.9153ZM14.9471 32.0068L17.5422 28.2016L19.7336 30.3925L15.9274 32.9869L14.9471 32.0068ZM11.6022 30.9114L11.9483 30.5654L17.4845 36.1002L17.1385 36.4461L11.6022 30.9114ZM28.0956 24.6847L23.2514 24.3964L23.0207 20.303L27.5189 13.7881L34.2086 12.808L28.2686 18.7463C28.038 18.977 28.038 19.3229 28.2686 19.4959C28.384 19.6112 28.4993 19.6688 28.6723 19.6688C28.7877 19.6688 28.9607 19.6112 29.076 19.4959L35.0736 13.4998L34.2662 20.476L28.0956 24.6847ZM22.7324 7.96504L24.9238 7.33084L21.8097 13.0386C21.6367 13.3269 21.752 13.6151 22.0404 13.7881C22.098 13.8458 22.2134 13.8458 22.3287 13.8458C22.5017 13.8458 22.7324 13.7304 22.7901 13.5575L25.7312 8.138L26.5962 13.0962L22.2134 19.4959H19.5606L21.06 17.0167C21.233 16.7285 21.1177 16.4402 20.887 16.2672C20.5986 16.0943 20.3103 16.2096 20.1373 16.4402L18.8109 18.6887L18.4649 17.1897L22.7324 7.96504ZM13.7937 39.8477C12.4673 41.1738 10.2759 41.1738 8.94946 39.8477L8.25743 39.1559C6.93104 37.8298 6.93104 35.639 8.25743 34.3129L10.8525 31.7185L16.3888 37.2533L13.7937 39.8477ZM31.8441 29.0664C31.7865 29.0664 31.7865 29.0664 31.8441 29.0664L29.422 28.7205L32.0171 27.4521C32.3055 27.3368 32.4208 26.9909 32.2478 26.7026C32.1325 26.4143 31.7865 26.299 31.4981 26.472L28.2686 28.0863L28.7877 25.6072L34.9006 21.3984L39.8025 22.2632L33.5742 25.4342C33.2859 25.5495 33.1705 25.8954 33.3435 26.1837C33.4589 26.3567 33.6319 26.472 33.8626 26.472C33.9202 26.472 34.0356 26.472 34.0932 26.4143L40.6675 23.0704L40.0332 25.3189L31.8441 29.0664Z" fill="#23C16B"/>
</svg>
